<svg id="visual" viewBox="0 900 600" width="900" height="600px"  overflow= "hidden" xmlns="http://www.w3.org/2000/svg" xmlns:xlink="http://www.w3.org/1999/xlink" version="1.1"><path d="M0 475L39 475L39 445L78 445L78 452L117 452L117 447L157 447L157 473L196 473L196 512L235 512L235 477L274 477L274 509L313 509L313 463L352 463L352 456L391 456L391 452L430 452L430 517L470 517L470 513L509 513L509 488L548 488L548 471L587 471L587 523L626 523L626 451L665 451L665 456L704 456L704 526L743 526L743 470L783 470L783 443L822 443L822 473L861 473L861 504L900 504L900 479L900 601L900 601L861 601L861 601L822 601L822 601L783 601L783 601L743 601L743 601L704 601L704 601L665 601L665 601L626 601L626 601L587 601L587 601L548 601L548 601L509 601L509 601L470 601L470 601L430 601L430 601L391 601L391 601L352 601L352 601L313 601L313 601L274 601L274 601L235 601L235 601L196 601L196 601L157 601L157 601L117 601L117 601L78 601L78 601L39 601L39 601L0 601Z" fill="#FC719D"></path><path d="M0 504L39 504L39 462L78 462L78 494L117 494L117 517L157 517L157 520L196 520L196 480L235 480L235 459L274 459L274 485L313 485L313 481L352 481L352 503L391 503L391 497L430 497L430 529L470 529L470 523L509 523L509 483L548 483L548 534L587 534L587 512L626 512L626 456L665 456L665 471L704 471L704 532L743 532L743 494L783 494L783 498L822 498L822 526L861 526L861 500L900 500L900 531L900 601L900 601L861 601L861 601L822 601L822 601L783 601L783 601L743 601L743 601L704 601L704 601L665 601L665 601L626 601L626 601L587 601L587 601L548 601L548 601L509 601L509 601L470 601L470 601L430 601L430 601L391 601L391 601L352 601L352 601L313 601L313 601L274 601L274 601L235 601L235 601L196 601L196 601L157 601L157 601L117 601L117 601L78 601L78 601L39 601L39 601L0 601Z" fill="#D067B3"></path><path d="M0 491L39 491L39 479L78 479L78 513L117 513L117 538L157 538L157 494L196 494L196 505L235 505L235 493L274 493L274 546L313 546L313 479L352 479L352 516L391 516L391 531L430 531L430 486L470 486L470 474L509 474L509 499L548 499L548 539L587 539L587 537L626 537L626 550L665 550L665 474L704 474L704 515L743 515L743 510L783 510L783 487L822 487L822 535L861 535L861 524L900 524L900 530L900 601L900 601L861 601L861 601L822 601L822 601L783 601L783 601L743 601L743 601L704 601L704 601L665 601L665 601L626 601L626 601L587 601L587 601L548 601L548 601L509 601L509 601L470 601L470 601L430 601L430 601L391 601L391 601L352 601L352 601L313 601L313 601L274 601L274 601L235 601L235 601L196 601L196 601L157 601L157 601L117 601L117 601L78 601L78 601L39 601L39 601L0 601Z" fill="#e36ba6"></path><path d="M0 554L39 554L39 498L78 498L78 543L117 543L117 501L157 501L157 535L196 535L196 530L235 530L235 547L274 547L274 528L313 528L313 502L352 502L352 535L391 535L391 523L430 523L430 512L470 512L470 561L509 561L509 526L548 526L548 492L587 492L587 514L626 514L626 523L665 523L665 514L704 514L704 547L743 547L743 549L783 549L783 493L822 493L822 543L861 543L861 516L900 516L900 552L900 601L900 601L861 601L861 601L822 601L822 601L783 601L783 601L743 601L743 601L704 601L704 601L665 601L665 601L626 601L626 601L587 601L587 601L548 601L548 601L509 601L509 601L470 601L470 601L430 601L430 601L391 601L391 601L352 601L352 601L313 601L313 601L274 601L274 601L235 601L235 601L196 601L196 601L157 601L157 601L117 601L117 601L78 601L78 601L39 601L39 601L0 601Z" fill="#dd68ae"></path><path d="M0 524L39 524L39 556L78 556L78 553L117 553L117 526L157 526L157 550L196 550L196 524L235 524L235 562L274 562L274 516L313 516L313 551L352 551L352 571L391 571L391 521L430 521L430 512L470 512L470 566L509 566L509 554L548 554L548 558L587 558L587 522L626 522L626 535L665 535L665 548L704 548L704 510L743 510L743 515L783 515L783 542L822 542L822 568L861 568L861 544L900 544L900 539L900 601L900 601L861 601L861 601L822 601L822 601L783 601L783 601L743 601L743 601L704 601L704 601L665 601L665 601L626 601L626 601L587 601L587 601L548 601L548 601L509 601L509 601L470 601L470 601L430 601L430 601L391 601L391 601L352 601L352 601L313 601L313 601L274 601L274 601L235 601L235 601L196 601L196 601L157 601L157 601L117 601L117 601L78 601L78 601L39 601L39 601L0 601Z" fill="#e8639af6"></path><path d="M0 542L39 542L39 545L78 545L78 552L117 552L117 563L157 563L157 527L196 527L196 539L235 539L235 561L274 561L274 529L313 529L313 535L352 535L352 546L391 546L391 557L430 557L430 575L470 575L470 548L509 548L509 541L548 541L548 552L587 552L587 551L626 551L626 536L665 536L665 567L704 567L704 560L743 560L743 550L783 550L783 552L822 552L822 547L861 547L861 553L900 553L900 534L900 601L900 601L861 601L861 601L822 601L822 601L783 601L783 601L743 601L743 601L704 601L704 601L665 601L665 601L626 601L626 601L587 601L587 601L548 601L548 601L509 601L509 601L470 601L470 601L430 601L430 601L391 601L391 601L352 601L352 601L313 601L313 601L274 601L274 601L235 601L235 601L196 601L196 601L157 601L157 601L117 601L117 601L78 601L78 601L39 601L39 601L0 601Z" fill="#eb586cf6"></path><path d="M0 567L39 567L39 585L78 585L78 580L117 580L117 577L157 577L157 549L196 549L196 573L235 573L235 576L274 576L274 576L313 576L313 563L352 563L352 546L391 546L391 588L430 588L430 571L470 571L470 546L509 546L509 580L548 580L548 549L587 549L587 549L626 549L626 546L665 546L665 576L704 576L704 565L743 565L743 560L783 560L783 564L822 564L822 573L861 573L861 550L900 550L900 588L900 601L900 601L861 601L861 601L822 601L822 601L783 601L783 601L743 601L743 601L704 601L704 601L665 601L665 601L626 601L626 601L587 601L587 601L548 601L548 601L509 601L509 601L470 601L470 601L430 601L430 601L391 601L391 601L352 601L352 601L313 601L313 601L274 601L274 601L235 601L235 601L196 601L196 601L157 601L157 601L117 601L117 601L78 601L78 601L39 601L39 601L0 601Z" fill="#FF917C"></path><path d="M0 588L39 588L39 587L78 587L78 580L117 580L117 566L157 566L157 574L196 574L196 572L235 572L235 572L274 572L274 592L313 592L313 593L352 593L352 566L391 566L391 580L430 580L430 580L470 580L470 571L509 571L509 566L548 566L548 578L587 578L587 595L626 595L626 585L665 585L665 584L704 584L704 592L743 592L743 571L783 571L783 599L822 599L822 579L861 579L861 579L900 579L900 596L900 601L900 601L861 601L861 601L822 601L822 601L783 601L783 601L743 601L743 601L704 601L704 601L665 601L665 601L626 601L626 601L587 601L587 601L548 601L548 601L509 601L509 601L470 601L470 601L430 601L430 601L391 601L391 601L352 601L352 601L313 601L313 601L274 601L274 601L235 601L235 601L196 601L196 601L157 601L157 601L117 601L117 601L78 601L78 601L39 601L39 601L0 601Z" fill="#ff8983"></path></svg>