<svg id="visual" viewBox="0 0 900 600" width="900" height="600" xmlns="http://www.w3.org/2000/svg" xmlns:xlink="http://www.w3.org/1999/xlink" version="1.1"><path d="M0 173L41 173L41 88L82 88L82 95L123 95L123 228L164 228L164 293L205 293L205 56L245 56L245 232L286 232L286 84L327 84L327 266L368 266L368 294L409 294L409 159L450 159L450 107L491 107L491 264L532 264L532 166L573 166L573 158L614 158L614 57L655 57L655 242L695 242L695 122L736 122L736 117L777 117L777 58L818 58L818 138L859 138L859 88L900 88L900 191L900 0L900 0L859 0L859 0L818 0L818 0L777 0L777 0L736 0L736 0L695 0L695 0L655 0L655 0L614 0L614 0L573 0L573 0L532 0L532 0L491 0L491 0L450 0L450 0L409 0L409 0L368 0L368 0L327 0L327 0L286 0L286 0L245 0L245 0L205 0L205 0L164 0L164 0L123 0L123 0L82 0L82 0L41 0L41 0L0 0Z" fill="#271554"></path><path d="M0 109L41 109L41 147L82 147L82 90L123 90L123 275L164 275L164 258L205 258L205 225L245 225L245 242L286 242L286 121L327 121L327 151L368 151L368 256L409 256L409 267L450 267L450 77L491 77L491 96L532 96L532 227L573 227L573 103L614 103L614 258L655 258L655 220L695 220L695 79L736 79L736 263L777 263L777 161L818 161L818 97L859 97L859 197L900 197L900 136L900 0L900 0L859 0L859 0L818 0L818 0L777 0L777 0L736 0L736 0L695 0L695 0L655 0L655 0L614 0L614 0L573 0L573 0L532 0L532 0L491 0L491 0L450 0L450 0L409 0L409 0L368 0L368 0L327 0L327 0L286 0L286 0L245 0L245 0L205 0L205 0L164 0L164 0L123 0L123 0L82 0L82 0L41 0L41 0L0 0Z" fill="#1c1823"></path><path d="M0 133L41 133L41 140L82 140L82 207L123 207L123 140L164 140L164 191L205 191L205 169L245 169L245 75L286 75L286 48L327 48L327 72L368 72L368 89L409 89L409 47L450 47L450 226L491 226L491 247L532 247L532 67L573 67L573 53L614 53L614 79L655 79L655 217L695 217L695 244L736 244L736 116L777 116L777 100L818 100L818 183L859 183L859 236L900 236L900 201L900 0L900 0L859 0L859 0L818 0L818 0L777 0L777 0L736 0L736 0L695 0L695 0L655 0L655 0L614 0L614 0L573 0L573 0L532 0L532 0L491 0L491 0L450 0L450 0L409 0L409 0L368 0L368 0L327 0L327 0L286 0L286 0L245 0L245 0L205 0L205 0L164 0L164 0L123 0L123 0L82 0L82 0L41 0L41 0L0 0Z" fill="#1d1828"></path><path d="M0 135L41 135L41 118L82 118L82 92L123 92L123 110L164 110L164 104L205 104L205 118L245 118L245 124L286 124L286 132L327 132L327 148L368 148L368 189L409 189L409 172L450 172L450 124L491 124L491 202L532 202L532 83L573 83L573 165L614 165L614 198L655 198L655 108L695 108L695 227L736 227L736 194L777 194L777 56L818 56L818 45L859 45L859 171L900 171L900 222L900 0L900 0L859 0L859 0L818 0L818 0L777 0L777 0L736 0L736 0L695 0L695 0L655 0L655 0L614 0L614 0L573 0L573 0L532 0L532 0L491 0L491 0L450 0L450 0L409 0L409 0L368 0L368 0L327 0L327 0L286 0L286 0L245 0L245 0L205 0L205 0L164 0L164 0L123 0L123 0L82 0L82 0L41 0L41 0L0 0Z" fill="#1e182d"></path><path d="M0 134L41 134L41 195L82 195L82 86L123 86L123 91L164 91L164 69L205 69L205 182L245 182L245 114L286 114L286 179L327 179L327 129L368 129L368 96L409 96L409 133L450 133L450 198L491 198L491 127L532 127L532 116L573 116L573 43L614 43L614 103L655 103L655 169L695 169L695 68L736 68L736 153L777 153L777 58L818 58L818 127L859 127L859 89L900 89L900 61L900 0L900 0L859 0L859 0L818 0L818 0L777 0L777 0L736 0L736 0L695 0L695 0L655 0L655 0L614 0L614 0L573 0L573 0L532 0L532 0L491 0L491 0L450 0L450 0L409 0L409 0L368 0L368 0L327 0L327 0L286 0L286 0L245 0L245 0L205 0L205 0L164 0L164 0L123 0L123 0L82 0L82 0L41 0L41 0L0 0Z" fill="#1f1832"></path><path d="M0 133L41 133L41 44L82 44L82 48L123 48L123 133L164 133L164 134L205 134L205 153L245 153L245 112L286 112L286 56L327 56L327 161L368 161L368 154L409 154L409 115L450 115L450 160L491 160L491 61L532 61L532 72L573 72L573 170L614 170L614 63L655 63L655 37L695 37L695 27L736 27L736 64L777 64L777 27L818 27L818 93L859 93L859 94L900 94L900 32L900 0L900 0L859 0L859 0L818 0L818 0L777 0L777 0L736 0L736 0L695 0L695 0L655 0L655 0L614 0L614 0L573 0L573 0L532 0L532 0L491 0L491 0L450 0L450 0L409 0L409 0L368 0L368 0L327 0L327 0L286 0L286 0L245 0L245 0L205 0L205 0L164 0L164 0L123 0L123 0L82 0L82 0L41 0L41 0L0 0Z" fill="#211836"></path><path d="M0 137L41 137L41 93L82 93L82 128L123 128L123 124L164 124L164 125L205 125L205 137L245 137L245 110L286 110L286 143L327 143L327 130L368 130L368 124L409 124L409 153L450 153L450 91L491 91L491 29L532 29L532 31L573 31L573 41L614 41L614 147L655 147L655 40L695 40L695 113L736 113L736 75L777 75L777 118L818 118L818 39L859 39L859 92L900 92L900 125L900 0L900 0L859 0L859 0L818 0L818 0L777 0L777 0L736 0L736 0L695 0L695 0L655 0L655 0L614 0L614 0L573 0L573 0L532 0L532 0L491 0L491 0L450 0L450 0L409 0L409 0L368 0L368 0L327 0L327 0L286 0L286 0L245 0L245 0L205 0L205 0L164 0L164 0L123 0L123 0L82 0L82 0L41 0L41 0L0 0Z" fill="#22183b"></path><path d="M0 45L41 45L41 79L82 79L82 62L123 62L123 97L164 97L164 61L205 61L205 34L245 34L245 45L286 45L286 23L327 23L327 61L368 61L368 96L409 96L409 36L450 36L450 27L491 27L491 91L532 91L532 90L573 90L573 64L614 64L614 111L655 111L655 41L695 41L695 24L736 24L736 130L777 130L777 25L818 25L818 125L859 125L859 118L900 118L900 36L900 0L900 0L859 0L859 0L818 0L818 0L777 0L777 0L736 0L736 0L695 0L695 0L655 0L655 0L614 0L614 0L573 0L573 0L532 0L532 0L491 0L491 0L450 0L450 0L409 0L409 0L368 0L368 0L327 0L327 0L286 0L286 0L245 0L245 0L205 0L205 0L164 0L164 0L123 0L123 0L82 0L82 0L41 0L41 0L0 0Z" fill="#231840"></path><path d="M0 79L41 79L41 38L82 38L82 41L123 41L123 68L164 68L164 70L205 70L205 102L245 102L245 20L286 20L286 41L327 41L327 27L368 27L368 43L409 43L409 96L450 96L450 24L491 24L491 112L532 112L532 96L573 96L573 16L614 16L614 84L655 84L655 104L695 104L695 64L736 64L736 86L777 86L777 87L818 87L818 38L859 38L859 71L900 71L900 31L900 0L900 0L859 0L859 0L818 0L818 0L777 0L777 0L736 0L736 0L695 0L695 0L655 0L655 0L614 0L614 0L573 0L573 0L532 0L532 0L491 0L491 0L450 0L450 0L409 0L409 0L368 0L368 0L327 0L327 0L286 0L286 0L245 0L245 0L205 0L205 0L164 0L164 0L123 0L123 0L82 0L82 0L41 0L41 0L0 0Z" fill="#241745"></path><path d="M0 72L41 72L41 51L82 51L82 12L123 12L123 70L164 70L164 44L205 44L205 89L245 89L245 65L286 65L286 89L327 89L327 74L368 74L368 71L409 71L409 61L450 61L450 33L491 33L491 35L532 35L532 43L573 43L573 34L614 34L614 34L655 34L655 45L695 45L695 88L736 88L736 75L777 75L777 85L818 85L818 11L859 11L859 42L900 42L900 15L900 0L900 0L859 0L859 0L818 0L818 0L777 0L777 0L736 0L736 0L695 0L695 0L655 0L655 0L614 0L614 0L573 0L573 0L532 0L532 0L491 0L491 0L450 0L450 0L409 0L409 0L368 0L368 0L327 0L327 0L286 0L286 0L245 0L245 0L205 0L205 0L164 0L164 0L123 0L123 0L82 0L82 0L41 0L41 0L0 0Z" fill="#25174a"></path><path d="M0 23L41 23L41 26L82 26L82 7L123 7L123 54L164 54L164 59L205 59L205 48L245 48L245 7L286 7L286 58L327 58L327 36L368 36L368 65L409 65L409 23L450 23L450 36L491 36L491 17L532 17L532 40L573 40L573 12L614 12L614 43L655 43L655 17L695 17L695 61L736 61L736 48L777 48L777 10L818 10L818 33L859 33L859 65L900 65L900 20L900 0L900 0L859 0L859 0L818 0L818 0L777 0L777 0L736 0L736 0L695 0L695 0L655 0L655 0L614 0L614 0L573 0L573 0L532 0L532 0L491 0L491 0L450 0L450 0L409 0L409 0L368 0L368 0L327 0L327 0L286 0L286 0L245 0L245 0L205 0L205 0L164 0L164 0L123 0L123 0L82 0L82 0L41 0L41 0L0 0Z" fill="#26164f"></path><path d="M0 1L41 1L41 23L82 23L82 18L123 18L123 37L164 37L164 45L205 45L205 37L245 37L245 9L286 9L286 10L327 10L327 29L368 29L368 11L409 11L409 12L450 12L450 32L491 32L491 32L532 32L532 6L573 6L573 12L614 12L614 43L655 43L655 9L695 9L695 33L736 33L736 19L777 19L777 43L818 43L818 32L859 32L859 3L900 3L900 6L900 0L900 0L859 0L859 0L818 0L818 0L777 0L777 0L736 0L736 0L695 0L695 0L655 0L655 0L614 0L614 0L573 0L573 0L532 0L532 0L491 0L491 0L450 0L450 0L409 0L409 0L368 0L368 0L327 0L327 0L286 0L286 0L245 0L245 0L205 0L205 0L164 0L164 0L123 0L123 0L82 0L82 0L41 0L41 0L0 0Z" fill="#271554"></path></svg>